<svg width="25" height="26" viewBox="0 0 25 26" fill="none" xmlns="http://www.w3.org/2000/svg">
<path d="M12.5 25.0043C19.4036 25.0043 25 19.4069 25 12.5021C25 5.5974 19.4036 0 12.5 0C5.59644 0 0 5.5974 0 12.5021C0 19.4069 5.59644 25.0043 12.5 25.0043Z" fill="#D35B53"/>
<path d="M17.4726 4.14001C16.9859 3.8602 16.2427 4.00529 15.9753 4.52592C14.7612 6.88989 13.5472 9.25386 12.3331 11.6179C11.3537 10.1099 10.1008 8.79315 8.64732 7.68954C8.17917 7.33409 7.42126 7.6195 7.14998 8.0754C6.81934 8.63108 7.0733 9.19079 7.5426 9.54711C9.23752 10.834 10.5445 12.5638 11.4246 14.4728C11.7591 15.1985 12.9653 15.1527 13.3145 14.4728C14.8314 11.519 16.3483 8.56539 17.8652 5.61173C18.1315 5.09334 18.0046 4.44584 17.4726 4.14002V4.14001V4.14001Z" fill="white"/>
<path d="M8 22.5C7.99996 22.9999 9.38872 23.5568 9.49996 23.0001C10.5 21.0001 12 17.5001 13.5401 15.0175C14.8349 16.1823 16.3322 17.0977 17.9591 17.7621C18.483 17.976 19.1077 17.5147 19.2394 17.0177C19.3998 16.412 19.0203 15.9517 18.495 15.7372C16.5979 14.9625 14.9434 13.6734 13.6361 12.107C13.1391 11.5115 12.0388 11.8625 11.8936 12.5896C11.2624 15.7481 8.63117 18.3416 8.00001 21.5001C7.88921 22.0544 8.00004 22.0001 8 22.5Z" fill="white"/>
</svg>
