<svg width="25" height="26" viewBox="0 0 25 26" fill="none" xmlns="http://www.w3.org/2000/svg">
<path d="M12.5 25.0043C19.4036 25.0043 25 19.4069 25 12.5021C25 5.5974 19.4036 0 12.5 0C5.59644 0 0 5.5974 0 12.5021C0 19.4069 5.59644 25.0043 12.5 25.0043Z" fill="#7CD353"/>
<path d="M19.0017 5.18144C18.4061 4.83299 17.4965 5.01367 17.1693 5.66201C15.6835 8.60589 14.1978 11.5498 12.7121 14.4937C11.5135 12.6158 9.98018 10.976 8.20144 9.60169C7.62853 9.15905 6.70102 9.51448 6.36903 10.0822C5.96439 10.7742 6.27518 11.4712 6.84952 11.9149C8.92373 13.5176 10.5232 15.6716 11.6002 18.0489C12.0096 18.9526 13.4857 18.8956 13.913 18.0489C15.7694 14.3706 17.6258 10.6924 19.4822 7.01418C19.808 6.36863 19.6527 5.56228 19.0017 5.18145V5.18143V5.18144Z" fill="white"/>
</svg>
